<svg xmlns="http://www.w3.org/2000/svg" xmlns:xlink="http://www.w3.org/1999/xlink" viewBox="0 0 533.89 421"><defs><style>.cls-1{fill:none;}.cls-2{fill:#002366;}.cls-3{isolation:isolate;}.cls-4{clip-path:url(#clip-path);}.cls-5{fill:#b66400;}.cls-6{fill:#fd8b00;}.cls-7{clip-path:url(#clip-path-2);}.cls-8{clip-path:url(#clip-path-3);}.cls-9{clip-path:url(#clip-path-4);}.cls-10{clip-path:url(#clip-path-5);}.cls-11{clip-path:url(#clip-path-6);}.cls-12{clip-path:url(#clip-path-7);}.cls-13{clip-path:url(#clip-path-8);}.cls-14{fill:#001948;}.cls-15{fill:#001949;}.cls-16{fill:#00194a;}.cls-17{fill:#001a4b;}.cls-18{clip-path:url(#clip-path-9);}.cls-19{fill:#001846;}.cls-20{clip-path:url(#clip-path-10);}.cls-21{clip-path:url(#clip-path-11);}.cls-22{fill:#00205d;}</style><clipPath id="clip-path"><path class="cls-1" d="M513.42,111.82v-3.7c12.94-1.68,20.09-3.05,20.47-3.13v3.71C533.51,108.77,526.36,110.14,513.42,111.82Z"/></clipPath><clipPath id="clip-path-2"><path class="cls-1" d="M470.05,158.09v-3.7c.05,0,.89-1,2.27-2.69v3.7C470.94,157.09,470.1,158,470.05,158.09Z"/></clipPath><clipPath id="clip-path-3"><path class="cls-1" d="M474.37,142.78v3.7a18.26,18.26,0,0,1-2.05,8.92v-3.7A18.26,18.26,0,0,0,474.37,142.78Z"/></clipPath><clipPath id="clip-path-4"><path class="cls-1" d="M489.2,120.08v3.7c0-4.39-2.3-7.69-8.5-8.63v-3.7C486.9,112.39,489.2,115.69,489.2,120.08Z"/></clipPath><clipPath id="clip-path-5"><path class="cls-1" d="M328.22,90.67V87c4.53,1.11,90.54,22.16,161.13,22.16,8.37,0,16.45-.32,24.07-1v3.7c-7.62.69-15.7,1-24.07,1C418.76,112.83,332.75,91.78,328.22,90.67Z"/></clipPath><clipPath id="clip-path-6"><path class="cls-1" d="M97.86,164.21v-3.7c3.79-3.86,75.81-77.13,188.36-77.13v3.7C173.67,87.08,101.65,160.35,97.86,164.21Z"/></clipPath><clipPath id="clip-path-7"><path class="cls-1" d="M286.22,87.08v-3.7a248.5,248.5,0,0,1,42,3.59v3.7A248.5,248.5,0,0,0,286.22,87.08Z"/></clipPath><clipPath id="clip-path-8"><path class="cls-1" d="M78.84,257.89H73.76c.44-2.56,0-4.34-1.31-5.31a6.55,6.55,0,0,0-3.92-1h5.08a6.49,6.49,0,0,1,3.91,1C78.84,253.55,79.28,255.33,78.84,257.89Z"/></clipPath><clipPath id="clip-path-9"><path class="cls-1" d="M72.73,246H67.66a29.8,29.8,0,0,1,4.31-.35h5.08A30,30,0,0,0,72.73,246Z"/></clipPath><clipPath id="clip-path-10"><path class="cls-1" d="M64,270.61H59a19.4,19.4,0,0,0,9.94-4.36,13.85,13.85,0,0,0,4.86-8.36h5.08A14,14,0,0,1,74,266.25,19.4,19.4,0,0,1,64,270.61Z"/></clipPath><clipPath id="clip-path-11"><path class="cls-1" d="M68.92,284H63.84q-.68-5.13-2.35-6.52a5.43,5.43,0,0,0-3.48-1h5.08a5.38,5.38,0,0,1,3.47,1Q68.24,278.83,68.92,284Z"/></clipPath></defs><g id="Layer_2" data-name="Layer 2"><g id="Layer_1-2" data-name="Layer 1"><path class="cls-2" d="M12.5,183.46V48.19s202.81-108.43,452.63,0v55.34L443.64,99l-1.49-45.31S210.39-42,34.44,56.31V175.78Z"/><path d="M34.78,223.56S-13,175.62,326.37,132.8c0,0-223.59,12.36-326.37,68.3Z"/><path class="cls-2" d="M215.93,133.39c1.58-.15,31.52-31.44,66.31-9.46Z"/><path d="M419.2,123.13S348,161,389.65,208.52L101.89,234.61l1.82-7.72,257-26.48a6,6,0,0,0,4.62-8C358.87,174.69,366.92,130.26,419.2,123.13Z"/><polygon points="144.83 178.46 163.18 201.3 337.38 184.06 174.94 193.26 144.83 178.46"/><path class="cls-2" d="M471.71,258.59l-98,13.55h-6.52l-1.1,1.06L3.83,323.31l93.63-7.66c17.3,14.2,113.45,88.15,134.31,104.18a5.66,5.66,0,0,0,7.49-.53c16.56-17,87.79-89.89,124.89-125.48l102.31-8.38ZM244.1,393.79a17.46,17.46,0,0,1-22.42,1.37L113,314.4h-.2l231.91-16.81Z"/><path d="M431.15,133.42c-23.22,0-42,17.41-42,38.88,0,15.1,9.31,28.19,22.91,34.63a30.31,30.31,0,0,1-13.25-24.73c0-17.16,15-31.07,33.6-31.07S466,165,466,182.2A29.61,29.61,0,0,1,458.23,202a37.71,37.71,0,0,0,15-29.74C473.19,150.83,454.37,133.42,431.15,133.42Z"/><path d="M73.59,193.65c-14.08,0-25.49,10.55-25.49,23.57,0,9.15,5.64,17.09,13.89,21a18.37,18.37,0,0,1-8-15c0-10.4,9.12-18.83,20.37-18.83s20.37,8.43,20.37,18.83a18,18,0,0,1-4.68,12,22.85,22.85,0,0,0,9.06-18C99.07,204.2,87.66,193.65,73.59,193.65Z"/><g class="cls-3"><g class="cls-3"><g class="cls-4"><g class="cls-3"><path class="cls-5" d="M513.42,111.82v-3.7c12.94-1.68,20.09-3.05,20.47-3.13v3.71c-.38.07-7.53,1.44-20.47,3.12"/></g></g></g><path class="cls-6" d="M533.89,108.7a157.66,157.66,0,0,1-20.47,3.12C526.36,110.14,533.51,108.77,533.89,108.7Z"/></g><g class="cls-3"><path class="cls-6" d="M472.32,155.4a9,9,0,0,1-2.27,2.69C470.1,158,470.94,157.09,472.32,155.4Z"/><g class="cls-3"><g class="cls-7"><g class="cls-3"><path class="cls-5" d="M470.05,158.09v-3.7c.05,0,.89-1,2.27-2.69v3.7c-1.38,1.69-2.22,2.64-2.27,2.69"/></g></g></g><g class="cls-3"><g class="cls-8"><g class="cls-3"><path class="cls-5" d="M472.32,155.4v-3.7a18.26,18.26,0,0,0,2.05-8.92v3.7a18.26,18.26,0,0,1-2.05,8.92"/></g></g></g><g class="cls-3"><g class="cls-9"><g class="cls-3"><path class="cls-5" d="M480.7,115.15v-3.7c6.2.94,8.5,4.24,8.5,8.63v3.7c0-4.39-2.3-7.69-8.5-8.63"/></g></g></g><g class="cls-3"><g class="cls-10"><g class="cls-3"><path class="cls-5" d="M328.22,90.67V87c4.53,1.11,90.54,22.16,161.13,22.16,8.37,0,16.45-.32,24.07-1v3.7c-7.62.69-15.7,1-24.07,1-70.59,0-156.6-21-161.13-22.16"/></g></g></g><g class="cls-3"><g class="cls-11"><g class="cls-3"><path class="cls-5" d="M97.86,164.21v-3.7c3.79-3.86,75.81-77.13,188.36-77.13v3.7c-112.55,0-184.57,73.27-188.36,77.13"/></g></g></g><g class="cls-3"><g class="cls-12"><g class="cls-3"><path class="cls-5" d="M286.22,87.08v-3.7a248.5,248.5,0,0,1,42,3.59v3.7a248.5,248.5,0,0,0-42-3.59"/></g></g></g><path class="cls-6" d="M286.22,87.08a248.5,248.5,0,0,1,42,3.59c4.53,1.11,90.54,22.16,161.13,22.16,8.37,0,16.45-.32,24.07-1-8.68,1.13-19.8,2.36-32.72,3.33,20.25,3.08-1.08,31.33-8.38,40.25,5.38-9.4.53-31.82-18.94-31.82a28.83,28.83,0,0,0-4.51.37,65.25,65.25,0,0,1-10.4.91c-16.51,0-19.57-8.15-19.58-8.17-31.75-.86-66.78-4.54-100.57-13.6a160.49,160.49,0,0,0-41.58-5.25c-90.11,0-174.44,63-178.88,66.37C101.65,160.35,173.67,87.08,286.22,87.08Z"/></g><g class="cls-3"><g class="cls-3"><g class="cls-13"><g class="cls-3"><path class="cls-14" d="M78.84,257.89H73.76c.44-2.56,0-4.34-1.31-5.31a4,4,0,0,0-.79-.44h5.08a3.67,3.67,0,0,1,.78.44c1.32,1,1.76,2.75,1.32,5.31"/><path class="cls-15" d="M76.74,252.14H71.66a5.58,5.58,0,0,0-1-.32h5.07a5.44,5.44,0,0,1,1,.32"/><path class="cls-16" d="M75.73,251.82H70.66a8.41,8.41,0,0,0-1.42-.19h5.08a8.15,8.15,0,0,1,1.41.19"/><path class="cls-17" d="M74.32,251.63H69.24l-.71,0h5.08l.71,0"/></g></g></g><g class="cls-3"><g class="cls-18"><g class="cls-3"><path class="cls-14" d="M72.73,246H67.66a29.8,29.8,0,0,1,4.31-.35h5.08a30,30,0,0,0-4.32.35"/></g></g></g><polygon class="cls-19" points="70.54 296.33 65.46 296.33 63.84 283.94 68.92 283.94 70.54 296.33"/><g class="cls-3"><g class="cls-20"><g class="cls-3"><path class="cls-14" d="M64,270.61H59a19.4,19.4,0,0,0,9.94-4.36,13.85,13.85,0,0,0,4.86-8.36h5.08A14,14,0,0,1,74,266.25,19.4,19.4,0,0,1,64,270.61"/></g></g></g><g class="cls-3"><g class="cls-21"><g class="cls-3"><path class="cls-14" d="M68.92,284H63.84q-.68-5.13-2.35-6.52a3.83,3.83,0,0,0-.86-.51h5.08a3.55,3.55,0,0,1,.85.51q1.68,1.4,2.36,6.52"/><path class="cls-15" d="M65.71,276.92H60.63a5.46,5.46,0,0,0-.89-.29h5.08a5.46,5.46,0,0,1,.89.29"/><path class="cls-16" d="M64.82,276.63H59.74a6.91,6.91,0,0,0-1.17-.15h5.08a6.91,6.91,0,0,1,1.17.15"/><path class="cls-17" d="M63.65,276.48H58.57l-.56,0h5.08l.56,0"/></g></g></g><polygon class="cls-19" points="57.67 248.26 52.59 248.26 67.66 245.98 72.73 245.98 57.67 248.26"/><polygon class="cls-19" points="56.12 271.8 51.04 271.8 58.96 270.61 64.04 270.61 56.12 271.8"/><path class="cls-22" d="M83.8,247.32q3.58,2.44,2.62,8.05a20.64,20.64,0,0,1-5.52,11,23.07,23.07,0,0,1-11,6.45,4.83,4.83,0,0,1,3.79,1.68c.84,1.05,1.56,3.52,2.17,7.38l2,13.36-7.28,1.1L68.92,284q-.67-5.13-2.36-6.52a5.38,5.38,0,0,0-3.47-1,13.7,13.7,0,0,0-2.19.19l-6.95,1-8.17,22.37-7.34,1.11,19.23-52.91L72.73,246a30,30,0,0,1,4.32-.35A11.72,11.72,0,0,1,83.8,247.32Zm-5,10.57c.44-2.56,0-4.34-1.32-5.31a6.49,6.49,0,0,0-3.91-1,19.7,19.7,0,0,0-3,.25L62.92,253l-6.8,18.78L64,270.61A19.4,19.4,0,0,0,74,266.25a14,14,0,0,0,4.86-8.36"/><polygon class="cls-19" points="38.44 301.17 33.36 301.17 52.59 248.26 57.67 248.26 38.44 301.17"/></g><g class="cls-3"><polygon class="cls-19" points="129.21 237.5 124.13 237.5 131.49 236.39 136.56 236.39 129.21 237.5"/><polygon class="cls-19" points="121.34 259.19 116.26 259.19 124.13 237.5 129.21 237.5 121.34 259.19"/><polygon class="cls-19" points="109.94 290.42 104.87 290.42 114.07 265.22 119.15 265.22 109.94 290.42"/><polygon class="cls-19" points="101.89 241.62 96.81 241.62 104.12 240.52 109.2 240.52 101.89 241.62"/><polygon class="cls-19" points="101.33 262.21 96.25 262.21 116.26 259.19 121.34 259.19 101.33 262.21"/><polygon class="cls-19" points="82.58 294.55 77.5 294.55 96.81 241.62 101.89 241.62 82.58 294.55"/><polygon class="cls-22" points="129.21 237.5 136.56 236.39 117.25 289.31 109.94 290.42 119.15 265.22 99.07 268.24 89.92 293.44 82.58 294.55 101.89 241.62 109.2 240.52 101.33 262.21 121.34 259.19 129.21 237.5"/></g><path d="M161.25,246.28l6.75-1-3.42,37.9-5.51.81,1.11-9.91-14.25,2.07L138.8,287l-6,.86Zm1.74,3.95-14.12,21.45,11.8-1.72Z"/><path d="M175.78,267.21l9.8-24.48,5.56-.81-9.82,24.48c-.08.23-.23.6-.44,1.09a41.58,41.58,0,0,0-1.95,5.62c-.33,1.59-.08,2.7.75,3.35s2.26.83,4.27.53a12.79,12.79,0,0,0,4.29-1.34,11.89,11.89,0,0,0,3.42-2.76,15,15,0,0,0,1.79-2.93q1-2,2.49-5.69l9.79-24.47,5.57-.81-9.79,24.47a51.15,51.15,0,0,1-4.18,8.66A19.33,19.33,0,0,1,193,276.9a22.23,22.23,0,0,1-10.46,4.4q-5.27.76-7.62-1.14c-1.57-1.28-2.06-3.34-1.47-6.2a22.28,22.28,0,0,1,.76-2.62C174.6,270.24,175.12,268.86,175.78,267.21Z"/><path d="M216.65,238.21l31.26-4.55-1.81,4.52-12.87,1.88-14.08,35.19-5.59.81,14.14-35.2-12.87,1.87Z"/><path d="M274.2,241.68a40.69,40.69,0,0,1-1.89,6.26,68.84,68.84,0,0,1-3.21,7.11c-.86,1.66-1.72,3.17-2.59,4.51a39.75,39.75,0,0,1-2.7,3.7,26.49,26.49,0,0,1-6.4,5.63,19.49,19.49,0,0,1-7.29,2.58c-3.67.53-6.18-.13-7.51-2s-1.55-5-.64-9.4a41.17,41.17,0,0,1,1.86-6.25,66.42,66.42,0,0,1,3.18-7.06c.86-1.66,1.72-3.17,2.59-4.51a38,38,0,0,1,2.7-3.7,26.49,26.49,0,0,1,6.4-5.63,19.49,19.49,0,0,1,7.29-2.58q5.53-.81,7.56,2T274.2,241.68Zm-22.52,25.45a10.36,10.36,0,0,0,4.58-1.94,16.48,16.48,0,0,0,4-4.25,59.38,59.38,0,0,0,8.54-20c.51-2.44.4-4.18-.32-5.2s-2.08-1.39-4.09-1.09a10.17,10.17,0,0,0-4.55,1.94,16.72,16.72,0,0,0-4,4.24,54.12,54.12,0,0,0-5.22,9.55,53.33,53.33,0,0,0-3.36,10.36c-.51,2.47-.41,4.21.31,5.24S249.67,267.42,251.68,267.13Z"/><path d="M285.26,228.22l7.37-1.07-1,19.08L307,225.06l7.41-1.08-16,39.72-5.1.75,14.16-35.31-16.15,22.27-3.87.56,1.09-20.07-14.1,35.29-5.1.74Z"/><path d="M341.83,231.84a41,41,0,0,1-1.89,6.26,67.85,67.85,0,0,1-3.22,7.11c-.85,1.66-1.72,3.16-2.59,4.51a41.08,41.08,0,0,1-2.69,3.7A26.47,26.47,0,0,1,325,259a19,19,0,0,1-7.28,2.58c-3.68.54-6.18-.13-7.52-2s-1.55-5-.64-9.4a42.37,42.37,0,0,1,1.87-6.24,64.42,64.42,0,0,1,3.17-7.07q1.29-2.49,2.6-4.51a39.71,39.71,0,0,1,2.69-3.7,26.49,26.49,0,0,1,6.4-5.63,19.3,19.3,0,0,1,7.29-2.57q5.53-.81,7.56,2C342.52,224.33,342.74,227.44,341.83,231.84Zm-22.52,25.45a10.47,10.47,0,0,0,4.57-2,16.63,16.63,0,0,0,4.05-4.24,60.16,60.16,0,0,0,8.54-20c.5-2.45.4-4.18-.32-5.2s-2.09-1.39-4.1-1.1a10.44,10.44,0,0,0-4.55,1.94,16.89,16.89,0,0,0-4,4.24,59.12,59.12,0,0,0-8.58,19.92c-.51,2.46-.4,4.21.31,5.24S317.3,257.58,319.31,257.29Z"/><path d="M355.19,218l12.14-1.77c3.72-.54,6.38-.26,8,.83s2.15,3,1.6,5.62a13.54,13.54,0,0,1-3.89,7,16.17,16.17,0,0,1-7.46,4.17c2.2.07,3.77.69,4.7,1.88s1.18,2.84.74,5a16.82,16.82,0,0,1-6.31,10,26.94,26.94,0,0,1-13,5.16l-12.4,1.8ZM352.45,238l-5.86,14.56,6.8-1a16.08,16.08,0,0,0,8.19-3.37,11.81,11.81,0,0,0,4-6.88q.57-2.76-1-3.81t-5.51-.47ZM359,221.65l-4.81,12,6.69-1a14,14,0,0,0,6.9-2.82,9.3,9.3,0,0,0,3.43-5.5c.34-1.62.07-2.71-.79-3.29s-2.44-.7-4.73-.36Z"/><path d="M389.9,213l22.76-3.32-1.81,4.53-8.61,1.25L390,246.12l8.61-1.25-1.81,4.52L374,252.7l1.81-4.52,8.58-1.25,12.3-30.67-8.61,1.25Z"/><path d="M424.35,208l5.54-.8-14.14,35.2,19.77-2.88L433.71,244,408.4,247.7Z"/><path d="M457.47,203.15l24.27-3.53-1.81,4.52-18.76,2.73-4.71,11.76,17.9-2.61-1.78,4.52-17.94,2.61-5.74,14.39,19.25-2.8-1.81,4.52-24.82,3.62Z"/></g></g></svg>